<svg version="1.2" xmlns="http://www.w3.org/2000/svg" viewBox="0 0 176 115" width="176" height="115">
	<title>Frame 2895-svg</title>
	<defs>
		<filter x="-50%" y="-50%" width="200%" height="200%" id="f1"> <feGaussianBlur stdDeviation="5"/> </filter>
		<filter x="-50%" y="-50%" width="200%" height="200%" id="f2"> <feGaussianBlur stdDeviation="4"/> </filter>
	</defs>
	<style>
		.s0 { filter: url(#f1);fill: none;stroke: #ff9838;stroke-width: 4 } 
		.s1 { fill: none;stroke: #ff9838;stroke-width: 4 } 
		.s2 { filter: url(#f2);fill: #ff9838 } 
		.s3 { filter: url(#f2);fill: none;stroke: #ff9838 } 
		.s4 { fill: #ff9838;stroke: #ff9838 } 
	</style>
	<g id="Layer">
	</g>
	<g id="Layer">
		<path id="Layer" class="s0" d="m163 28c0 0.4-0.2 1-1 1.8-0.8 0.8-2.1 1.7-3.9 2.6-3.7 1.8-9.2 3.5-16.1 5-13.7 2.8-32.8 4.6-54 4.6-21.2 0-40.3-1.8-54-4.6-6.9-1.5-12.4-3.2-16.1-5-1.8-0.9-3.1-1.8-3.9-2.6-0.8-0.8-1-1.4-1-1.8 0-0.4 0.2-1 1-1.8 0.8-0.8 2.1-1.7 3.9-2.6 3.7-1.8 9.2-3.5 16.1-5 13.7-2.8 32.8-4.6 54-4.6 21.2 0 40.3 1.8 54 4.6 6.9 1.5 12.4 3.2 16.1 5 1.8 0.9 3.1 1.8 3.9 2.6 0.8 0.8 1 1.4 1 1.8z"/>
	</g>
	<path id="Layer" class="s1" d="m163 28c0 0.4-0.2 1-1 1.8-0.8 0.8-2.1 1.7-3.9 2.6-3.7 1.8-9.2 3.5-16.1 5-13.7 2.8-32.8 4.6-54 4.6-21.2 0-40.3-1.8-54-4.6-6.9-1.5-12.4-3.2-16.1-5-1.8-0.9-3.1-1.8-3.9-2.6-0.8-0.8-1-1.4-1-1.8 0-0.4 0.2-1 1-1.8 0.8-0.8 2.1-1.7 3.9-2.6 3.7-1.8 9.2-3.5 16.1-5 13.7-2.8 32.8-4.6 54-4.6 21.2 0 40.3 1.8 54 4.6 6.9 1.5 12.4 3.2 16.1 5 1.8 0.9 3.1 1.8 3.9 2.6 0.8 0.8 1 1.4 1 1.8z"/>
	<g id="Layer">
		<path id="Layer" class="s2" d="m28 77.4v27.6c0 0.8 1 1.3 1.6 0.7l15.5-12c0.5-0.4 0.5-1.1 0.1-1.5l-15.5-15.5c-0.6-0.6-1.7-0.2-1.7 0.7z"/>
		<path id="Layer" class="s3" d="m28 77.4v27.6c0 0.8 1 1.3 1.6 0.7l15.5-12c0.5-0.4 0.5-1.1 0.1-1.5l-15.5-15.5c-0.6-0.6-1.7-0.2-1.7 0.7z"/>
	</g>
	<g id="Layer">
		<path id="Layer" class="s2" d="m142 77.4v27.6c0 0.8-1 1.3-1.6 0.7l-15.5-12c-0.5-0.4-0.5-1.1-0.1-1.5l15.5-15.5c0.6-0.6 1.7-0.2 1.7 0.7z"/>
		<path id="Layer" class="s3" d="m142 77.4v27.6c0 0.8-1 1.3-1.6 0.7l-15.5-12c-0.5-0.4-0.5-1.1-0.1-1.5l15.5-15.5c0.6-0.6 1.7-0.2 1.7 0.7z"/>
	</g>
	<path id="Layer" class="s4" d="m28 77.4v27.6c0 0.8 1 1.3 1.6 0.7l15.5-12c0.5-0.4 0.5-1.1 0.1-1.5l-15.5-15.5c-0.6-0.6-1.7-0.2-1.7 0.7z"/>
	<path id="Layer" class="s4" d="m143 77.4v27.6c0 0.8-1 1.3-1.6 0.7l-15.5-12c-0.5-0.4-0.5-1.1-0.1-1.5l15.5-15.5c0.6-0.6 1.7-0.2 1.7 0.7z"/>
</svg>