<svg width="19" height="20" viewBox="0 0 19 20" fill="none" xmlns="http://www.w3.org/2000/svg">
<path fill-rule="evenodd" clip-rule="evenodd" d="M9.39155 9.48942C9.39155 7.31362 11.8207 5.22873 11.8207 3.05293C11.8207 1.64299 10.6777 0.5 9.26778 0.5C7.85783 0.5 6.71484 1.64299 6.71484 3.05293C6.71484 5.23876 9.17494 7.33584 9.17494 9.52167V10.4783C9.17494 12.6642 6.71484 14.7612 6.71484 16.9471C6.71484 18.357 7.85783 19.5 9.26778 19.5C10.6777 19.5 11.8207 18.357 11.8207 16.9471C11.8207 14.7713 9.39155 12.6864 9.39155 10.5106V9.48942Z" fill="#FF9838"/>
<path fill-rule="evenodd" clip-rule="evenodd" d="M10.0106 10.122C12.1864 10.122 14.2713 12.5512 16.4471 12.5512C17.857 12.5512 19 11.4082 19 9.99824C19 8.5883 17.857 7.44531 16.4471 7.44531C14.2612 7.44531 12.1642 9.90541 9.97833 9.90541L9.02168 9.90541C6.83584 9.90541 4.73876 7.44531 2.55293 7.44531C1.14299 7.44531 -4.99615e-08 8.5883 -1.11592e-07 9.99824C-1.73223e-07 11.4082 1.14299 12.5512 2.55293 12.5512C4.72873 12.5512 6.81362 10.122 8.98942 10.122L10.0106 10.122Z" fill="#FF9838"/>
</svg>
