<svg width="480" height="480" viewBox="0 0 480 480" fill="none" xmlns="http://www.w3.org/2000/svg">
<g clip-path="url(#clip0_716_4937)">
<path d="M358.094 33.7432C398.952 55.7977 432.304 89.5368 453.885 130.647" stroke="#48484E" stroke-miterlimit="10"/>
<path d="M356.321 42.6914L346.955 28.1133L364.261 27.2793L356.321 42.6914Z" fill="#48484E"/>
<path d="M469.349 177.647C482.647 222.139 482.381 269.585 468.584 313.924" stroke="#48484E" stroke-miterlimit="10"/>
<path d="M461.773 182.739L465.457 165.798L478.28 177.457L461.773 182.739Z" fill="#48484E"/>
<path d="M446.257 358.093C424.205 398.957 390.466 432.316 349.354 453.902" stroke="#48484E" stroke-miterlimit="10"/>
<path d="M437.309 356.321L451.887 346.955L452.721 364.261L437.309 356.321Z" fill="#48484E"/>
<path d="M302.353 469.348C257.861 482.652 210.412 482.38 166.076 468.566" stroke="#48484E" stroke-miterlimit="10"/>
<path d="M297.262 461.773L314.186 465.457L302.544 478.28L297.262 461.773Z" fill="#48484E"/>
<path d="M121.907 446.257C81.0523 424.192 47.6975 390.456 26.0977 349.354" stroke="#48484E" stroke-miterlimit="10"/>
<path d="M123.662 437.309L133.027 451.887L115.738 452.721L123.662 437.309Z" fill="#48484E"/>
<path d="M10.6511 302.335C-2.65281 257.844 -2.38057 210.395 11.4329 166.059" stroke="#48484E" stroke-miterlimit="10"/>
<path d="M18.2101 297.261L14.5439 314.185L1.7207 302.543L18.2101 297.261Z" fill="#48484E"/>
<path d="M33.7441 121.907C55.8292 81.0455 89.582 47.6858 130.7 26.0811" stroke="#48484E" stroke-miterlimit="10"/>
<path d="M42.6914 123.662L28.1133 133.027L27.2793 115.738L42.6914 123.662Z" fill="#48484E"/>
<path d="M177.613 10.6517C222.105 -2.64731 269.55 -2.38113 313.89 11.4162" stroke="#48484E" stroke-miterlimit="10"/>
<path d="M182.738 18.2091L165.797 14.5429L177.456 1.71973L182.738 18.2091Z" fill="#48484E"/>
</g>
<defs>
<clipPath id="clip0_716_4937">
<rect width="480" height="480" fill="white"/>
</clipPath>
</defs>
</svg>
