<svg width="24" height="24" viewBox="0 0 16 16" fill="none" xmlns="http://www.w3.org/2000/svg">
<path d="M8 16C12.4184 16 16 12.4184 16 8C16 7.6296 15.4448 7.568 15.2536 7.8856C14.8458 8.56107 14.2896 9.13488 13.6272 9.56357C12.9648 9.99226 12.2135 10.2646 11.4303 10.3599C10.647 10.4553 9.85234 10.3711 9.10644 10.1138C8.36053 9.85655 7.68295 9.4329 7.12503 8.87497C6.5671 8.31705 6.14345 7.63947 5.88618 6.89356C5.6289 6.14766 5.54474 5.35298 5.64008 4.56973C5.73541 3.78649 6.00774 3.0352 6.43643 2.37279C6.86512 1.71038 7.43893 1.1542 8.1144 0.7464C8.432 0.5544 8.3704 0 8 0C3.5816 0 0 3.5816 0 8C0 12.4184 3.5816 16 8 16Z" fill="#717171"/>
</svg>
