<svg width="48" height="39" viewBox="0 0 48 39" fill="none" xmlns="http://www.w3.org/2000/svg">
<path d="M4.8 39C3.48 39 2.3504 38.5231 1.4112 37.5692C0.4704 36.6137 0 35.4656 0 34.125V4.875C0 3.53437 0.4704 2.38712 1.4112 1.43325C2.3504 0.47775 3.48 0 4.8 0H43.2C44.52 0 45.6504 0.47775 46.5912 1.43325C47.5304 2.38712 48 3.53437 48 4.875V34.125C48 35.4656 47.5304 36.6137 46.5912 37.5692C45.6504 38.5231 44.52 39 43.2 39H4.8ZM24 21.5109C24.2 21.5109 24.4096 21.4801 24.6288 21.4183C24.8496 21.3582 25.06 21.2672 25.26 21.1453L42.24 10.3594C42.56 10.1562 42.8 9.90275 42.96 9.59888C43.12 9.29338 43.2 8.95781 43.2 8.59219C43.2 7.77969 42.86 7.17031 42.18 6.76406C41.5 6.35781 40.8 6.37813 40.08 6.825L24 17.0625L7.92 6.825C7.2 6.37813 6.5 6.36756 5.82 6.79331C5.14 7.22069 4.8 7.82031 4.8 8.59219C4.8 8.99844 4.88 9.3535 5.04 9.65737C5.2 9.96287 5.44 10.1969 5.76 10.3594L22.74 21.1453C22.94 21.2672 23.1504 21.3582 23.3712 21.4183C23.5904 21.4801 23.8 21.5109 24 21.5109Z" fill="white"/>
</svg>
