<svg width="20" height="28" viewBox="0 0 20 28" fill="none" xmlns="http://www.w3.org/2000/svg">
<path d="M19.3898 13.7226L7.13984 26.8477C7.01002 26.9862 6.83867 27.0787 6.65163 27.1114C6.4646 27.144 6.27203 27.1149 6.10299 27.0284C5.93395 26.942 5.79761 26.8029 5.71454 26.6322C5.63147 26.4615 5.60619 26.2684 5.64249 26.082L7.24593 18.0616L0.942651 15.6947C0.807279 15.644 0.686559 15.5607 0.591276 15.452C0.495992 15.3433 0.429114 15.2127 0.396614 15.0719C0.364115 14.9311 0.367007 14.7844 0.405033 14.6449C0.443058 14.5055 0.515032 14.3776 0.614526 14.2728L12.8645 1.1478C12.9943 1.00927 13.1657 0.916707 13.3527 0.884098C13.5398 0.851489 13.7323 0.880597 13.9014 0.967031C14.0704 1.05346 14.2068 1.19253 14.2898 1.36325C14.3729 1.53397 14.3982 1.72708 14.3619 1.91343L12.7541 9.94265L19.0573 12.3062C19.1917 12.3572 19.3115 12.4405 19.406 12.5488C19.5005 12.657 19.567 12.7869 19.5994 12.9269C19.6318 13.0669 19.6293 13.2127 19.592 13.3515C19.5547 13.4903 19.4837 13.6178 19.3855 13.7226H19.3898Z" fill="#FF9838"/>
</svg>
