<svg version="1.2" xmlns="http://www.w3.org/2000/svg" viewBox="0 0 1756 226" width="1756" height="226">
	<title>Wavedesign__Masterbrand logo with descriptor Monochrome white DE-svg</title>
	<style>
		.s0 { fill: #ffffff } 
	</style>
	<path id="Layer" class="s0" d="m167.8 52.3l-48.5 115.6-35.5-71.8-35.4 71.8-48.5-115.6h24.2l26.2 66.6 33.5-70.4 33.6 70.4 26.1-66.6z"/>
	<path id="Layer" fill-rule="evenodd" class="s0" d="m294.6 52.3v111.9h-22.4v-16.3c-9.1 11.8-22.1 18.1-37.3 18.1-32.6 0-56-25.8-56-57.8 0-31.9 23.3-57.8 56-57.8 15.2 0 28.2 6.3 37.3 18.2v-16.4zm-22.4 56c0-14.3-8.6-27.2-21.8-32.7-13.3-5.5-28.5-2.4-38.7 7.7-10.1 10.1-13.1 25.4-7.6 38.6 5.4 13.3 18.4 21.9 32.7 21.9 4.7 0 9.3-0.9 13.6-2.7 4.3-1.8 8.2-4.4 11.5-7.7 3.3-3.3 5.9-7.2 7.7-11.5 1.7-4.3 2.6-8.9 2.6-13.6z"/>
	<path id="Layer" class="s0" d="m313.3 52.3h24.2l29.8 65.2 29.9-65.3h24.2l-54.1 115.7z"/>
	<path id="Layer" fill-rule="evenodd" class="s0" d="m536.4 118.5h-84.7c3.5 17.5 18.7 25.2 36.4 25.2q4.6-0.1 9.1-0.9 4.4-0.7 8.8-2.1 4.3-1.4 8.4-3.5 4-2.1 7.7-4.7l7.5 20c-3 2.6-17.7 13.5-42 13.5-39.2 0-58.8-26.3-58.8-57.8 0-31.9 21.5-57.8 55.7-57.8 29.7 0 52.5 21.9 52.5 58.3q0 1.2 0 2.4-0.1 1.3-0.2 2.5 0 1.2-0.2 2.4-0.1 1.3-0.2 2.5zm-22.2-20.5c-0.4-11-9.3-25.2-30.5-25.2-20.5 0-31.5 14.2-32 25.2z"/>
	<path id="Layer" fill-rule="evenodd" class="s0" d="m671.4 0v164.2h-22.4v-16.3c-9.1 11.8-22.2 18.1-37.3 18.1-32.6 0-56-25.8-56-57.8 0-31.9 23.3-57.8 56-57.8 15.2 0 28.2 6.3 37.3 18.2v-68.6zm-22.4 108.2c0-14.3-8.6-27.2-21.8-32.7-13.3-5.5-28.5-2.5-38.7 7.7-10.1 10.1-13.1 25.3-7.7 38.6 5.5 13.2 18.5 21.8 32.8 21.8 4.6 0.1 9.3-0.9 13.6-2.6 4.3-1.8 8.2-4.4 11.5-7.7 3.2-3.3 5.9-7.2 7.6-11.5 1.8-4.3 2.7-8.9 2.7-13.6z"/>
	<path id="Layer" fill-rule="evenodd" class="s0" d="m801.2 118.5h-84.6c3.5 17.5 18.6 25.2 36.4 25.2q4.5-0.1 9-0.9 4.5-0.7 8.8-2.1 4.4-1.4 8.4-3.5 4.1-2.1 7.8-4.7l7.4 20c-3 2.6-17.7 13.5-42 13.5-39.1 0-58.7-26.3-58.7-57.8 0-31.9 21.4-57.8 55.7-57.8 29.6 0 52.5 21.9 52.5 58.3q0 1.2-0.1 2.4 0 1.3-0.1 2.5-0.1 1.2-0.2 2.4-0.1 1.3-0.3 2.5zm-22.1-20.5c-0.5-11-9.3-25.2-30.6-25.2-20.5 0-31.4 14.2-31.9 25.2z"/>
	<path id="Layer" class="s0" d="m913.8 129.2c0 22.1-15.6 36.8-44.7 36.8-24.7 0-43.4-11-48.5-15.8l8.8-21.9c8.9 8.8 26.4 15.1 39 15.3 14.4 0.3 23.1-5.1 23.1-11.8 0-8.4-8.2-11.7-22-14.3-36.6-6.5-45.2-17.2-45.2-35.2 0-18.6 18-31.9 45.5-31.9 10 0 25.4 2.5 40.5 10.7l-7.7 21c-5.1-3.7-19.1-9.1-32.8-9.3-11-0.3-23.1 2.1-23.1 9.8 0 8.4 13.3 10 26.3 12.6 32.9 6.3 40.8 20.2 40.8 34z"/>
	<path id="Layer" class="s0" d="m932.5 16.8c0-6.8 4.1-12.9 10.4-15.5 6.2-2.6 13.5-1.2 18.3 3.6 4.8 4.8 6.2 12.1 3.6 18.3-2.6 6.3-8.7 10.4-15.5 10.4-2.2 0-4.4-0.4-6.5-1.3-2-0.8-3.9-2-5.4-3.6-1.6-1.6-2.8-3.4-3.7-5.5-0.8-2-1.2-4.2-1.2-6.4zm5.6 35.4l22.4 0.1v111.9h-22.4z"/>
	<path id="Layer" fill-rule="evenodd" class="s0" d="m1100.4 52.3v104.9c0 46.6-24 68.5-59.7 68.5q-7.1 0-14.1-1.2-7-1.2-13.7-3.6-6.6-2.4-12.8-5.9-6.2-3.5-11.7-7.9l11.2-20.1c9.4 7.2 21.2 16.3 41 16.3 23.3 0 37.3-15.3 37.3-42.9v-12.5c-9.1 11.8-22.1 18.1-37.3 18.1-32.6 0-56-25.8-56-57.8 0-31.9 23.4-57.8 56-57.8 15.2 0 28.2 6.3 37.3 18.2v-16.4zm-22.4 56c0-14.3-8.6-27.2-21.8-32.7-13.3-5.5-28.5-2.4-38.6 7.7-10.2 10.1-13.2 25.4-7.7 38.6 5.5 13.3 18.4 21.9 32.7 21.9 4.7 0 9.3-0.9 13.6-2.7 4.3-1.8 8.2-4.4 11.5-7.7 3.3-3.3 5.9-7.2 7.7-11.5 1.8-4.3 2.7-8.9 2.7-13.6z"/>
	<path id="Layer" class="s0" d="m1232.8 99.8v64.4h-22.4v-62.5c0-18-6.1-28.9-25.2-28.9-13.5 0-30.7 10.7-30.7 29.8v61.6h-22.4v-112h22.4v13.1c6.5-7.5 17.4-14.9 35-14.9 26.5 0 43.3 16.3 43.3 49.4z"/>
	<path id="Layer" fill-rule="evenodd" class="s0" d="m1386.4 71.8c0 11.3-7.5 20.4-20.8 20.4h-12.3v-40.8h12.3c13.6 0 20.8 9.1 20.8 20.4zm-5.8 0c0-8.1-5.5-14.6-13.5-14.6h-7.9v29.2h7.9c8 0 13.5-6.5 13.5-14.6z"/>
	<path id="Layer" class="s0" d="m1417.1 92.2v-40.8h5.8v40.8z"/>
	<path id="Layer" class="s0" d="m1494.4 71.8c0 11.6-8.3 20.9-19.9 20.9-5.5-0.1-10.7-2.4-14.5-6.3-3.8-3.9-6-9.1-6-14.6 0-5.5 2.2-10.7 6-14.6 3.8-4 9-6.2 14.5-6.3 8.3 0 14.6 4.6 18.1 11.4l-5.9 1.7q-0.9-1.7-2.2-3-1.3-1.4-2.9-2.4-1.6-0.9-3.4-1.4-1.8-0.5-3.7-0.5c-3.9 0.1-7.7 1.7-10.4 4.6-2.8 2.8-4.3 6.6-4.3 10.5 0 3.9 1.5 7.7 4.3 10.5 2.7 2.8 6.5 4.5 10.4 4.6 1.6 0 3.2-0.2 4.8-0.7 1.5-0.6 2.9-1.3 4.2-2.4 1.2-1 2.3-2.2 3.1-3.6 0.8-1.4 1.4-2.9 1.6-4.5h-15.2v-5.9l21.3 0.1q0 0.2 0 0.5 0.1 0.2 0.1 0.5 0 0.2 0 0.4 0 0.3 0 0.5z"/>
	<path id="Layer" class="s0" d="m1525.1 92.2v-40.8h5.9v40.8z"/>
	<path id="Layer" class="s0" d="m1589.3 51.4v5.8h-10.7v35h-5.8v-35h-10.7v-5.8z"/>
	<path id="Layer" fill-rule="evenodd" class="s0" d="m1639.4 83.5h-18.4l-4 8.7h-6.3l19.4-41.8 19.5 41.8h-6.3zm-2.7-5.8l-6.5-14.4-6.5 14.4z"/>
	<path id="Layer" class="s0" d="m1701.3 86.4v5.8h-22.4v-40.8h5.8v35z"/>
	<path id="Layer" fill-rule="evenodd" class="s0" d="m1378.1 154.4h-18.4l-4 8.8h-6.3l19.5-41.8 19.4 41.8h-6.3zm-2.7-5.8l-6.5-14.4-6.5 14.4z"/>
	<path id="Layer" class="s0" d="m1454.5 142.8c0 11.5-8.3 20.9-20 20.9-5.5 0-10.8-2.2-14.7-6.1-4-4-6.2-9.3-6.2-14.8 0-5.6 2.2-10.9 6.2-14.8 3.9-4 9.2-6.2 14.7-6.2 8.3 0 14.6 4.7 18.1 11.5l-5.9 1.7q-0.9-1.7-2.1-3.1-1.3-1.3-2.9-2.3-1.6-1-3.5-1.5-1.8-0.5-3.7-0.4c-3.9 0.1-7.6 1.7-10.4 4.5-2.7 2.8-4.3 6.6-4.3 10.6 0 3.9 1.6 7.7 4.3 10.5 2.8 2.8 6.5 4.4 10.4 4.5 1.7 0.1 3.3-0.2 4.8-0.7 1.5-0.5 3-1.3 4.2-2.3 1.3-1 2.3-2.2 3.1-3.6 0.9-1.4 1.4-3 1.7-4.6l-15.2 0.1v-5.9l21.3 0.1q0 0.2 0 0.4 0.1 0.3 0.1 0.5 0 0.2 0 0.5 0 0.2 0 0.5z"/>
	<path id="Layer" class="s0" d="m1491.1 128.2v11.6h14.6v5.9h-14.6v11.7h17.5v5.8h-23.4v-40.9h23.4v5.9z"/>
	<path id="Layer" class="s0" d="m1546.5 135.2v28h-5.8v-41.8l28.2 28.9v-28h5.8v41.9z"/>
	<path id="Layer" class="s0" d="m1633.1 122.3v5.9h-10.7v35h-5.8v-35h-10.7v-5.9z"/>
	<path id="Layer" class="s0" d="m1694.4 122.3v22.9c0 10.8-4.8 18.5-15.5 18.5-11 0-15.6-7.7-15.6-18.5v-22.9h5.8v24.8c0 6.4 3.6 10.7 9.8 10.7 6.1 0 9.7-4.3 9.7-10.7v-24.8z"/>
	<path id="Layer" fill-rule="evenodd" class="s0" d="m1748.9 163.2l-10.1-14.1h-6.4v14.1h-5.8v-40.9h12.6c10.6 0 15.6 5.4 15.6 13.1 0 6.3-3.5 11.5-9.6 13.1l10.5 14.7zm-16.5-20h8.7c4.3 0 7.8-2.2 7.8-7.4 0-5.3-3.4-7.6-7.7-7.6h-8.8z"/>
	<path id="Layer" class="s0" d="m1288.9 50.4h3.9v113.8h-3.9z"/>
</svg>