<svg width="26" height="26" viewBox="0 0 26 26" fill="none" xmlns="http://www.w3.org/2000/svg">
<path d="M2.98135 3.93987C2.90756 4.30142 3.01086 4.91383 3.20639 5.27169C3.35765 5.55576 3.66386 5.99478 4.17667 6.68467C4.58249 7.23068 5.18015 7.83572 6.54148 9.07162C7.89544 10.3001 8.63329 11.038 9.3158 11.8312C9.64045 12.2149 10.0426 12.6613 10.2049 12.8236C10.5333 13.1519 10.6845 13.4877 10.6329 13.7459C10.6033 13.8713 10.5849 13.8824 10.3857 13.875C9.72162 13.8529 8.98008 13.4139 7.93602 12.4362C7.61874 12.1411 7.10594 11.7094 6.79235 11.477C5.51956 10.5363 5.25762 10.3186 4.42754 9.48851C3.97007 9.03104 3.36134 8.45183 3.06989 8.19727C2.11438 7.36719 1.30274 7.07205 0.697702 7.34505C0.321398 7.51476 0.0557718 7.98698 0.0262575 8.53299C0.004122 8.99784 0.1148 9.18968 0.978085 10.171C1.91147 11.2298 2.36524 11.6762 3.05882 12.2222C3.35396 12.451 3.72289 12.7461 3.87784 12.8789C4.03279 13.0044 4.40171 13.2848 4.69316 13.5024C5.08791 13.7865 5.56014 14.1997 6.46032 15.0556C7.70359 16.2325 7.92126 16.4132 8.47096 16.7342C8.67018 16.8523 8.9026 17.0478 9.19405 17.3392C9.83598 17.9885 10.7694 19.0769 10.8764 19.2945C10.987 19.5307 11.0756 20.2095 11.0129 20.3681C10.9612 20.5157 10.7657 20.6153 10.4115 20.6817C10.2344 20.7186 9.8987 20.6854 9.39327 20.5858C8.97639 20.5083 8.42669 20.4382 8.17213 20.4271C7.64457 20.4087 7.54496 20.3829 6.82186 20.0656C5.75567 19.5971 4.99937 19.5122 4.26521 19.7741C3.84832 19.9254 3.83357 19.9328 3.39824 20.3681C2.9297 20.8367 2.80795 21.0543 2.87805 21.2867C2.92601 21.4306 3.66386 22.1685 3.96269 22.364C4.11026 22.4599 4.55297 22.6223 5.11374 22.7846C5.61917 22.9285 6.48983 23.2384 7.0506 23.4671C7.60767 23.6995 8.3898 23.9947 8.78455 24.1312C9.45599 24.3599 11.7027 24.8948 12.4222 24.9944C13.2043 25.1051 14.6947 25.3855 15.4252 25.5626C15.8642 25.6696 16.377 25.7544 16.5615 25.7544C17.4654 25.7507 18.6791 25.4445 19.2436 25.0719C19.3912 24.976 19.7047 24.8247 19.9372 24.7325C20.3061 24.5923 20.4131 24.5222 20.734 24.2308C21.055 23.9393 21.162 23.8028 21.5051 23.2457C21.8925 22.6223 21.9183 22.5964 22.2393 22.364C22.42 22.2349 22.7742 22.0357 23.0214 21.9139C23.2686 21.7995 23.715 21.5524 24.0138 21.3716C24.5229 21.0617 24.5746 21.0174 24.7701 20.7407C25.2091 20.1172 25.519 19.158 25.5301 18.3944C25.5411 17.7783 25.3714 17.0699 25.0431 16.3284C24.8734 15.9447 24.6815 15.5167 24.6225 15.3766C24.5598 15.2327 24.2425 14.6572 23.9105 14.0964C23.2722 13.0081 22.789 12.3698 22.3241 11.9861C22.1839 11.8755 21.9663 11.643 21.8408 11.4733C21.5899 11.1339 21.0513 10.4994 20.2397 9.57705C19.5535 8.80231 19.3284 8.41493 19.1071 7.62543C18.9448 7.05729 18.1848 5.17577 17.6646 4.07268C17.2293 3.14299 16.2258 1.65991 15.8421 1.37215C15.5174 1.13604 14.8239 1.15817 14.5619 1.42011C14.4143 1.56768 14.3221 1.9034 14.3406 2.23174C14.359 2.56009 14.407 2.70397 14.6947 3.24998C14.9013 3.63366 15.1928 4.33093 15.499 5.16839C15.5875 5.4045 15.7683 5.83615 15.9048 6.1276C16.4877 7.37456 16.9157 8.48872 16.9747 8.94619C17.0116 9.1823 16.9599 9.25608 16.6943 9.36676C16.484 9.45161 16.3844 9.44793 16.2147 9.34463C15.9749 9.19337 15.3588 8.3928 14.9308 7.66971C14.3922 6.76215 13.4736 5.57052 12.3631 4.35675C11.9093 3.85871 11.4666 3.34959 11.3892 3.22784C11.3043 3.1061 10.9501 2.70028 10.5923 2.32767C10.2381 1.95136 9.78434 1.46069 9.58143 1.23564C9.24939 0.859342 9.18668 0.811382 8.85464 0.649054C8.28281 0.37236 7.95078 0.364981 7.57447 0.623229C7.44166 0.711772 7.38632 0.796623 7.30885 1.03643C7.18341 1.3906 7.20924 1.65991 7.40108 2.05835C7.60399 2.46786 8.38611 3.62628 8.63329 3.87346C8.84726 4.08744 9.14978 4.54491 9.96511 5.86935C10.3045 6.42274 10.5296 6.73632 10.821 7.04991C11.3744 7.65495 12.341 8.88716 12.5992 9.31511C12.9682 9.92753 13.0346 10.3776 12.7837 10.5842C12.673 10.6801 12.0569 10.3297 11.7175 9.98287C11.6363 9.9017 10.7767 9.02735 9.80278 8.03863C8.83251 7.0536 7.9766 6.1608 7.89913 6.06119C7.82534 5.95789 7.53389 5.69595 7.25351 5.4746C6.97312 5.25324 6.44556 4.81422 6.08401 4.49695C4.99568 3.54143 4.42385 3.10241 4.19512 3.05076C3.92211 2.98435 3.64173 3.09503 3.31338 3.38648C3.05514 3.61521 3.03669 3.64842 2.98135 3.93987Z" fill="#FF9838"/>
</svg>
