<svg width="67" height="71" viewBox="0 0 67 71" fill="none" xmlns="http://www.w3.org/2000/svg">
<path d="M35.9055 4.03343L35.912 4.03534C36.1871 4.1143 36.6719 4.35967 37.1963 4.71223C37.7151 5.06103 38.1422 5.42694 38.3448 5.67369C38.5211 5.89258 38.7344 6.25042 38.9185 6.65048C39.1062 7.05839 39.2207 7.41745 39.2518 7.62635L39.2537 7.63928L39.2559 7.65216C39.2559 7.65205 39.2559 7.65207 39.2559 7.65222C39.2561 7.65338 39.2575 7.66233 39.2593 7.68066C39.2612 7.7006 39.2632 7.72681 39.2647 7.75945C39.2679 7.82522 39.2692 7.90627 39.2679 7.99793C39.2654 8.18267 39.2531 8.3852 39.234 8.55548L39.2337 8.55806C39.1957 8.90423 39.1759 8.98321 39.1407 9.07083C39.0897 9.19748 38.9914 9.3697 38.6926 9.84344L38.6874 9.85165C38.3346 10.4232 38.1218 10.6886 37.8536 10.9063C37.5636 11.1416 37.1537 11.3663 36.3155 11.7457L36.3135 11.7466C35.7324 12.0112 35.2082 12.3071 34.7759 12.6169C34.3585 12.9161 33.9649 13.2721 33.7152 13.6767C33.4038 14.1812 33.3052 14.7899 33.3235 15.3244C33.342 15.8665 33.484 16.4551 33.7866 16.9516C33.787 16.9523 33.7873 16.9529 33.7877 16.9535L34.6413 16.4325C35.1123 17.2114 35.3699 17.4069 38.8394 19.634L35.9055 4.03343ZM35.9055 4.03343C34.228 3.53954 32.8502 3.92678 31.8677 5.02916L31.8667 5.03025M35.9055 4.03343L31.8667 5.03025M17.6128 42.5767C17.391 42.6594 17.0533 42.8902 16.8496 43.0817C16.2618 43.6585 16.0806 44.3276 16.1467 45.7228C16.25 47.8487 16.0727 48.63 15.2297 49.818L15.2195 29.5926C13.6462 29.049 12.4727 27.8261 11.7431 26.1573C11.5712 25.7692 11.2956 25.1883 11.1402 24.8875C10.8636 24.3623 10.452 24.1 10.0491 24.0314C9.6464 23.9629 9.16181 24.0728 8.71237 24.4741C8.71852 24.4688 8.71418 24.4744 8.69781 24.4955C8.67119 24.5297 8.61277 24.6048 8.51603 24.7408C8.37294 24.942 8.18891 25.2139 7.97578 25.5382C7.55053 26.1852 7.02535 27.0164 6.50964 27.8543C5.99389 28.6923 5.492 29.53 5.11279 30.1899C4.92265 30.5207 4.76737 30.8 4.65765 31.0091C4.60245 31.1144 4.56315 31.1936 4.53796 31.2484C4.53391 31.2572 4.53055 31.2647 4.5278 31.2709C4.46799 31.5757 4.55823 31.8034 4.71515 31.9516L4.73004 31.9657L4.74434 31.9804C4.73585 31.9716 4.7375 31.9729 4.75421 31.9859C4.77996 32.006 4.84148 32.0539 4.95678 32.1359C5.11865 32.2511 5.33802 32.4002 5.60477 32.576C6.13701 32.927 6.8361 33.3707 7.59496 33.8391C9.05452 34.74 10.6101 35.7601 11.0469 36.0984L11.0469 36.0984L11.0521 36.1025C12.117 36.9385 12.7973 37.8814 12.8008 39.1205L12.8009 39.1316L12.8007 39.1427C12.7953 39.4202 12.7828 39.7159 12.6771 40.0424C12.5784 40.3471 12.4156 40.6243 12.2351 40.9167L11.8206 41.5882L11.6715 41.8298L11.4178 41.957L10.1656 42.5847C10.1652 42.5848 10.1648 42.585 10.1644 42.5852C8.6227 43.3632 8.26048 43.6278 7.73157 44.1778C6.60863 45.3599 6.54601 47.2514 7.83677 48.8278C8.03983 49.072 8.41757 49.4071 8.86452 49.7236C9.31594 50.0434 9.74377 50.2774 10.0175 50.3717L10.0248 50.3742L10.0321 50.3768C10.7657 50.6422 11.7918 50.6979 12.4509 50.542C13.341 50.3313 13.9276 49.9359 14.4098 49.2454L14.4097 49.2454L14.4142 49.2392C14.7892 48.7108 14.9691 48.3407 15.0673 47.9032C15.173 47.4323 15.1988 46.8187 15.1479 45.7713L15.1479 45.7702C15.1131 45.0372 15.1366 44.3997 15.2868 43.8373C15.4467 43.2386 15.7366 42.7728 16.1493 42.3679L16.1568 42.3605L16.1645 42.3533C16.4282 42.1053 16.8744 41.7859 17.2591 41.6414M17.6128 42.5767L17.2543 41.6432C17.2559 41.6426 17.2575 41.642 17.2591 41.6414M17.6128 42.5767C18.1246 42.3801 19.3074 42.5001 20.0743 42.8392M17.6128 42.5767L20.0743 42.8392M17.2591 41.6414C17.7418 41.4575 18.3581 41.4607 18.8523 41.5125C19.3837 41.5683 19.9762 41.7028 20.4763 41.9236M17.2591 41.6414L20.4763 41.9236M20.4763 41.9236C20.7112 42.0264 21.2453 42.3254 21.8556 42.6801C22.4968 43.0527 23.2931 43.5289 24.0911 44.0215C24.957 44.5559 25.7043 45.005 26.2615 45.3266C26.541 45.4879 26.766 45.6132 26.9311 45.7C27.0714 45.7738 27.1263 45.7967 27.1257 45.7981C27.1256 45.7984 27.1218 45.7974 27.1149 45.7954L27.1246 45.7984C27.3506 45.8672 27.5525 45.8259 27.7472 45.6417C27.751 45.6377 27.7663 45.6215 27.795 45.5866C27.8281 45.5463 27.8714 45.4907 27.9264 45.4161C28.0367 45.2667 28.1805 45.0595 28.3651 44.7821C28.7341 44.2278 29.2458 43.4236 29.9445 42.3014L29.9458 42.2993C30.8095 40.9197 31.3283 40.0989 31.6851 39.5775C32.0517 39.0418 32.2848 38.7657 32.5855 38.5023L32.5855 38.5023L32.5918 38.4968C33.0962 38.0625 33.6464 37.7415 34.2721 37.599C34.9028 37.4553 35.5283 37.5115 36.1512 37.703L36.1512 37.7029L36.1605 37.7059C37.2461 38.0513 37.9028 38.997 38.4209 40.2076L20.4763 41.9236ZM44.9018 34.6019C46.3669 35.2134 47.4191 36.7903 47.4658 38.4542C47.5756 41.7555 44.7622 44.6924 41.7778 44.3876C39.7911 44.1863 38.5776 43.1079 37.5015 40.6011C37.0119 39.4569 36.51 38.8665 35.8573 38.6588C34.8727 38.3561 34.078 38.5367 33.2444 39.2546L38.4209 40.2077C38.9309 41.3954 39.4313 42.1407 39.9614 42.6105C40.4675 43.059 41.0609 43.3099 41.8786 43.3927L41.8793 43.3928C43.0053 43.5078 44.1653 43.0149 45.0602 42.0813C45.953 41.1497 46.5115 39.8458 46.4663 38.4874L46.4662 38.4823C46.4299 37.1906 45.6006 35.9796 44.5212 35.5267M44.9018 34.6019L44.5266 35.5289C44.5248 35.5282 44.523 35.5274 44.5212 35.5267M44.9018 34.6019C43.9255 34.2068 43.3372 34.1121 42.0508 34.16C39.4781 34.2558 38.8424 33.9611 38.577 32.5526L44.9018 34.6019ZM44.5212 35.5267C44.0778 35.3475 43.7654 35.2539 43.4384 35.2029C43.1013 35.1503 42.7062 35.1363 42.088 35.1593C40.8358 35.2059 39.7928 35.1816 39.0286 34.8279C38.5973 34.6283 38.2598 34.3304 38.0169 33.9332C37.789 33.5606 37.6707 33.143 37.5943 32.7378L37.5942 32.7379L37.5921 32.7254C37.4547 31.9423 37.5081 31.0546 37.7343 30.0781M44.5212 35.5267L37.7343 30.0781M37.7343 30.0781C37.9047 29.3359 38.1891 28.8676 39.6036 26.6334L37.7343 30.0781ZM20.0743 42.8392C20.4108 42.9859 21.9843 43.8962 23.5659 44.8724C25.3065 45.9468 26.5918 46.6914 26.8332 46.755L20.0743 42.8392ZM31.8667 5.03025C31.2034 5.77226 30.8769 6.75543 30.9758 8.59304C31.0139 9.26929 31.0195 9.82778 30.9216 10.3267C30.815 10.8696 30.5995 11.2814 30.3077 11.6937C29.9904 12.1456 29.6077 12.5305 29.0884 12.7706C28.5745 13.0081 28.031 13.0553 27.4805 13.0227L27.4783 13.0226M31.8667 5.03025L27.4783 13.0226M27.4783 13.0226C26.1844 12.9433 25.1688 12.383 22.0423 10.4532C21.1586 9.90771 20.4316 9.47112 19.8926 9.16077C19.6225 9.00527 19.4057 8.88495 19.2431 8.79965C19.112 8.73092 19.0442 8.70001 19.0218 8.68978C19.0209 8.6894 19.0201 8.68904 19.0194 8.68871C18.9593 8.67629 18.8224 8.66952 18.642 8.71694C18.45 8.76742 18.3341 8.84627 18.2953 8.8845M27.4783 13.0226L18.2953 8.8845M18.2953 8.8845C18.2901 8.89125 18.2823 8.90164 18.2715 8.9164C18.2375 8.96282 18.1896 9.03124 18.1272 9.12297C18.0032 9.30534 17.8374 9.55772 17.6399 9.86421C17.2457 10.4759 16.7369 11.2855 16.2073 12.1434C15.3778 13.4873 14.8976 14.2754 14.6074 14.7908C14.3195 15.3019 14.2564 15.4799 14.2215 15.6132L14.2194 15.6214L14.2171 15.6297C14.0408 16.259 14.0995 16.6029 14.2873 16.9389C14.4086 17.1423 14.4447 17.1793 14.4619 17.1955C14.4807 17.2133 14.531 17.2565 14.7648 17.3779L14.773 17.3822L14.7811 17.3866C15.1706 17.5981 15.4923 17.6838 16.9312 17.5798L16.9343 17.5795C20.0532 17.3639 22.695 19.1109 23.2145 22.092C23.5114 23.7304 23.1782 25.2638 22.2763 26.725C20.71 29.2625 17.9051 30.5222 15.2196 29.5926L18.2953 8.8845ZM4.53801 31.2241L4.53672 31.2296C4.53715 31.2278 4.53758 31.226 4.53801 31.2241Z" stroke="#48484E" stroke-width="2"/>
<path d="M31.5368 16.2631C30.4378 17.3292 29.834 18.8169 29.9392 20.1829C29.9782 20.8318 30.0225 20.9501 30.604 21.9572C31.175 22.9464 31.2709 23.0709 31.7902 23.4305C32.0964 23.6493 32.8375 24.0607 33.4222 24.3466C34.5864 24.9094 35.2923 25.509 35.5205 26.1326C35.7368 26.7151 35.6783 27.4443 35.3754 27.9788C34.8451 28.9085 34.6051 29.095 30.9044 31.3035C27.0741 33.5989 27.0959 33.5743 27.074 34.4502C27.0555 34.9165 27.0763 34.9525 28.7418 37.8995C30.6008 41.2024 31.3722 42.3517 31.8406 42.5608C32.2755 42.7533 32.6591 42.7117 33.0804 42.4445C33.5196 42.1669 33.7769 41.8026 34.1809 40.8619C34.7036 39.649 35.5282 38.5853 36.5077 37.852C38.4627 36.3996 41.8556 36.8146 43.7701 38.7187C44.4235 39.3726 45.2894 40.9348 45.5748 41.969C46.1705 44.1429 45.8185 45.7969 44.4129 47.4117C43.8517 48.0595 43.7182 48.1605 42.8701 48.6022C41.7008 49.1934 40.8952 49.3348 39.1278 49.2641C37.9942 49.2112 37.7819 49.2379 37.2935 49.4719C36.7871 49.7163 36.7256 49.7758 36.6216 50.1356C36.378 50.9596 36.4822 51.2232 38.4606 54.7329C40.3805 58.1206 40.5892 58.4197 41.2548 58.6589C41.9398 58.9109 42.2535 58.7897 45.581 56.9525C48.6605 55.2465 49.7773 54.7096 50.4788 54.6163C51.107 54.5414 51.748 54.7588 52.2072 55.2011C52.8785 55.8446 53.105 56.673 52.938 57.9204C52.7147 59.5481 52.8883 60.6587 53.5581 61.8187C54.5497 63.5363 56.2518 64.304 58.3535 63.9778C59.3535 63.8201 60.812 63.0859 61.5327 62.3821C62.8727 61.0689 63.4233 59.4682 63.0747 57.847C62.9788 57.4108 62.8189 57.0715 62.4129 56.4306C61.7411 55.3917 61.1917 54.9176 59.9669 54.3538C58.6519 53.7582 58.1454 53.3793 57.7716 52.7318C57.1967 51.7569 57.3946 50.7913 58.3445 49.7993C58.6906 49.4436 59.4162 48.9767 62.2048 47.3068C65.6087 45.2696 65.6357 45.254 65.858 44.8499C66.2168 44.1631 66.1552 43.911 65.1562 41.9939C63.6 39.0077 61.7665 36.2057 61.0651 35.7593C59.6857 34.8652 58.1051 35.6579 57.2447 37.6773C56.7757 38.7754 56.3559 39.3774 55.6543 40.0103C54.5189 41.0135 53.0973 41.3547 51.6198 40.9968C50.6992 40.7729 49.6713 40.1554 49.0474 39.4486C48.5231 38.852 47.8039 37.5648 47.6193 36.892C47.2473 35.5001 47.454 33.9061 48.1742 32.8069C48.6642 32.0564 49.5191 31.419 50.445 31.1122C51.2294 30.8511 52.5065 30.7372 53.2901 30.8484C54.4344 31.003 54.9145 30.9416 55.6339 30.5263C56.2274 30.1836 56.3415 30.0698 56.5714 29.6373C56.8933 29.0318 56.9474 28.461 56.751 27.7471C56.5613 27.0654 52.9762 20.8144 52.5015 20.3451C52.3333 20.1785 52.0247 19.997 51.8157 19.9258C51.1529 19.733 50.6116 19.9376 48.3635 21.2355C45.9536 22.6268 43.7356 23.7276 43.0023 23.9112C41.6824 24.2416 40.6209 23.6075 40.2621 22.28C40.0841 21.6394 40.0809 21.5093 40.2189 20.0869C40.364 18.5523 40.0651 17.3701 39.2709 16.3059C38.2202 14.9223 36.489 14.2912 34.6399 14.6394C33.7931 14.7926 32.1741 15.6434 31.5368 16.2631Z" fill="#FF9838"/>
</svg>
