<svg width="59" height="51" viewBox="0 0 59 51" fill="none" xmlns="http://www.w3.org/2000/svg">
<path d="M3 10.9826V36.0148C3 42.4118 10.136 46.2215 15.4513 42.6621L43.4874 23.8879C49.332 19.9741 47.644 10.9652 40.7789 9.4328L12.7428 3.17474C7.74474 2.05909 3 5.8615 3 10.9826Z" stroke="#48484E" stroke-width="5"/>
<path d="M20.6657 22.494C19.7727 22.0697 18.6928 22.4474 18.385 23.3869C17.5203 26.0262 17.4507 28.8764 18.2071 31.5763C19.1254 34.8537 21.1988 37.688 24.0444 39.5556C26.8899 41.4231 30.3153 42.1976 33.6875 41.736C37.0597 41.2744 40.1509 39.6078 42.3899 37.0443C44.6289 34.4808 45.8643 31.1935 45.868 27.7898C45.8718 24.3862 44.6434 21.0962 42.41 18.5278C40.1766 15.9594 37.0891 14.2861 33.7179 13.8171C30.9408 13.4308 28.1258 13.8832 25.627 15.0952C24.7374 15.5267 24.5084 16.6476 25.049 17.4753C25.5897 18.303 26.6953 18.5196 27.6027 18.1271C29.3609 17.3665 31.3049 17.0962 33.2246 17.3633C35.7393 17.7131 38.0423 18.9612 39.7083 20.8771C41.3743 22.7929 42.2905 25.247 42.2877 27.7859C42.285 30.3248 41.3634 32.7769 39.6933 34.6891C38.0231 36.6013 35.7173 37.8444 33.2019 38.1888C30.6865 38.5331 28.1314 37.9554 26.0089 36.5623C23.8863 35.1693 22.3396 33.0551 21.6547 30.6103C21.1317 28.744 21.138 26.7813 21.6551 24.9368C21.922 23.9849 21.5586 22.9184 20.6657 22.494Z" fill="#FF9838"/>
<path d="M40 26L45.5 22" stroke="#48484E" stroke-width="5"/>
</svg>