<svg width="72" height="57" viewBox="0 0 72 57" fill="none" xmlns="http://www.w3.org/2000/svg">
<path d="M33.2008 18.5471L34.9566 17.5895L33.2008 18.5471C33.7761 19.602 34.7952 20.3424 35.9762 20.5635L48.7058 22.9474L39.8085 32.3582C38.983 33.2313 38.5938 34.4293 38.7484 35.6209L40.4149 48.4641L28.7153 42.9104L27.8577 44.7171L28.7153 42.9103C27.6298 42.3951 26.3702 42.3951 25.2847 42.9103L26.1423 44.7171L25.2847 42.9104L13.5851 48.4641L15.2516 35.6209C15.4062 34.4293 15.017 33.2313 14.1915 32.3582L5.29419 22.9474L18.0238 20.5635C19.2048 20.3424 20.2239 19.602 20.7992 18.5471L27 7.17716L33.2008 18.5471Z" stroke="#48484E" stroke-width="4"/>
<path d="M42.8584 29.3613L42.6977 31.3548L42.8584 29.3613L36.478 28.8472L40.3653 23.7616C41.095 22.807 41.3569 21.5749 41.0785 20.406L39.5958 14.179L45.6337 16.3045C46.7671 16.7035 48.0198 16.5718 49.0455 15.9459L54.5095 12.6116L54.3538 19.0107C54.3246 20.2119 54.837 21.3627 55.7492 22.1447L60.6088 26.3109L54.4748 28.1403C53.3233 28.4837 52.3872 29.3266 51.9253 30.4359L49.4648 36.3451L45.8294 31.0766C45.1469 30.0876 44.0561 29.4578 42.8584 29.3613Z" stroke="#FF9838" stroke-width="4"/>
<path d="M43.5 22C39.7418 21.6789 37.7833 21.0399 34.5 20" stroke="#48484E" stroke-width="4"/>
</svg>
