<svg version="1.2" xmlns="http://www.w3.org/2000/svg" viewBox="0 0 1114 687" width="1114" height="687">
	<title>logo-svg</title>
	<defs>
		<linearGradient id="g1" x1="306.1" y1="674.7" x2="143" y2="92.1" gradientUnits="userSpaceOnUse">
			<stop offset="0" stop-color="#d26f32"/>
			<stop offset=".39" stop-color="#f2933c"/>
			<stop offset="1" stop-color="#eab942"/>
		</linearGradient>
		<linearGradient id="g2" x1="621.5" y1="-138.1" x2="443.3" y2="424.5" gradientUnits="userSpaceOnUse">
			<stop offset="0" stop-color="#f2933c"/>
			<stop offset="1" stop-color="#eab942"/>
		</linearGradient>
		<linearGradient id="g3" x1="984.9" y1="-136.2" x2="807.5" y2="424" gradientUnits="userSpaceOnUse">
			<stop offset="0" stop-color="#f2933c"/>
			<stop offset="1" stop-color="#eab942"/>
		</linearGradient>
		<linearGradient id="g4" x1="306.1" y1="674.7" x2="143" y2="92.1" gradientUnits="userSpaceOnUse">
			<stop offset="0" stop-color="#d26f32"/>
			<stop offset=".39" stop-color="#f2933c"/>
			<stop offset="1" stop-color="#eab942"/>
		</linearGradient>
		<linearGradient id="g5" x1="621.5" y1="-138.1" x2="443.3" y2="424.5" gradientUnits="userSpaceOnUse">
			<stop offset="0" stop-color="#f2933c"/>
			<stop offset="1" stop-color="#eab942"/>
		</linearGradient>
		<linearGradient id="g6" x1="984.9" y1="-136.2" x2="807.5" y2="424" gradientUnits="userSpaceOnUse">
			<stop offset="0" stop-color="#f2933c"/>
			<stop offset="1" stop-color="#eab942"/>
		</linearGradient>
	</defs>
	<style>
		.s0 { fill: url(#g1) } 
		.s1 { fill: url(#g2) } 
		.s2 { fill: url(#g3) } 
		.s3 { fill: url(#g4) } 
		.s4 { fill: url(#g5) } 
		.s5 { fill: url(#g6) } 
	</style>
	<path id="Layer" class="s0" d="m332.3 685.4l47-13.6c-4.1-3.3-59.3-26.3-78.6-89.2-18.9-61.4-37.4-122.5-37.4-122.5-4.4-14.2-7.7-28.8-9.9-43.5-2.2-14.8-3.3-29.7-3.3-44.6 0-14.9 1.1-29.8 3.3-44.6 2.2-14.7 5.5-29.3 9.9-43.6l87-283.8h-172.2c-11.3 0-22.4 1.8-33.1 5.3-10.7 3.6-20.7 8.8-29.8 15.5-9 6.6-16.9 14.7-23.4 23.9-6.5 9.2-11.5 19.4-14.8 30.1l-63.3 207c-4.5 14.6-7.9 29.5-10.1 44.6-2.3 15.1-3.4 30.3-3.4 45.6 0 15.3 1.1 30.5 3.4 45.6 2.2 15.1 5.6 30 10.1 44.6l36.3 118.2c4.6 15.1 11.7 29.5 20.8 42.4 9.2 12.9 20.3 24.3 33.1 33.7 12.7 9.4 26.9 16.7 41.9 21.7 15.1 4.9 30.8 7.4 46.7 7.4z"/>
	<path id="Layer" class="s1" d="m756.7 0.4l-171.1-0.2c-11.3-0.1-22.4 1.7-33.1 5.2-10.7 3.5-20.8 8.7-29.8 15.4-9.1 6.7-17 14.8-23.5 24-6.5 9.2-11.5 19.3-14.8 30.1l-155.3 506.9c-25.5 83.2-100.5 104-152.3 104 15.3 0-4 0.3 119.6 0.3h19.9c33.1 0 66-5.2 97.5-15.6 31.4-10.4 61-25.7 87.6-45.4 26.7-19.7 50-43.5 69.1-70.5 19.1-27 33.8-56.9 43.5-88.6z"/>
	<path id="Layer" class="s2" d="m1114.2 0h-188.8c-8.8 0-17.6 1.4-26 4.2-8.4 2.7-16.3 6.8-23.4 12.1-7.1 5.2-13.3 11.6-18.4 18.8-5.1 7.2-9 15.2-11.6 23.6l-135.3 442.3c-40.2 131-163.3 184.7-163.3 184.7h123.8c33.4 0 66.7-5.3 98.5-15.8 31.8-10.5 61.8-26 88.7-45.9 26.9-19.9 50.5-44 69.9-71.3 19.3-27.4 34.2-57.6 44-89.7z"/>
	<path id="Layer" class="s3" d="m332.3 685.4l47-13.6c-4.1-3.3-59.3-26.3-78.6-89.2-18.9-61.4-37.4-122.5-37.4-122.5-4.4-14.2-7.7-28.8-9.9-43.5-2.2-14.8-3.3-29.7-3.3-44.6 0-14.9 1.1-29.8 3.3-44.6 2.2-14.7 5.5-29.3 9.9-43.6l87-283.8h-172.2c-11.3 0-22.4 1.8-33.1 5.3-10.7 3.6-20.7 8.8-29.8 15.5-9 6.6-16.9 14.7-23.4 23.9-6.5 9.2-11.5 19.4-14.8 30.1l-63.3 207c-4.5 14.6-7.9 29.5-10.1 44.6-2.3 15.1-3.4 30.3-3.4 45.6 0 15.3 1.1 30.5 3.4 45.6 2.2 15.1 5.6 30 10.1 44.6l36.3 118.2c4.6 15.1 11.7 29.5 20.8 42.4 9.2 12.9 20.3 24.3 33.1 33.7 12.7 9.4 26.9 16.7 41.9 21.7 15.1 4.9 30.8 7.4 46.7 7.4z"/>
	<path id="Layer" class="s4" d="m756.7 0.4l-171.1-0.2c-11.3-0.1-22.4 1.7-33.1 5.2-10.7 3.5-20.8 8.7-29.8 15.4-9.1 6.7-17 14.8-23.5 24-6.5 9.2-11.5 19.3-14.8 30.1l-155.3 506.9c-25.5 83.2-100.5 104-152.3 104 15.3 0-4 0.3 119.6 0.3h19.9c33.1 0 66-5.2 97.5-15.6 31.4-10.4 61-25.7 87.6-45.4 26.7-19.7 50-43.5 69.1-70.5 19.1-27 33.8-56.9 43.5-88.6z"/>
	<path id="Layer" class="s5" d="m1114.2 0h-188.8c-8.8 0-17.6 1.4-26 4.2-8.4 2.7-16.3 6.8-23.4 12.1-7.1 5.2-13.3 11.6-18.4 18.8-5.1 7.2-9 15.2-11.6 23.6l-135.3 442.3c-40.2 131-163.3 184.7-163.3 184.7h123.8c33.4 0 66.7-5.3 98.5-15.8 31.8-10.5 61.8-26 88.7-45.9 26.9-19.9 50.5-44 69.9-71.3 19.3-27.4 34.2-57.6 44-89.7z"/>
</svg>