<svg width="22" height="28" viewBox="0 0 22 28" fill="none" xmlns="http://www.w3.org/2000/svg">
<path d="M2.05122 23.4296L2.05122 25.0022L0.559691 25.0022L0.55969 28L21.4402 28L21.4402 25.0022L19.9495 25.0022L19.9495 23.4296C19.9495 21.0279 15.6399 14.4685 15.4363 13.9959C15.6362 13.5223 19.9496 6.96384 19.9496 4.57224L19.9496 3.00148L21.4402 3.00148L21.4402 0L0.559693 -1.82543e-06L0.559693 3.00148L2.05122 3.00148L2.05122 4.57224C2.05122 6.97582 6.36458 13.4919 6.59213 14.0005C6.36458 14.5099 2.05122 21.0279 2.05122 23.4296ZM3.54275 4.57224L3.54275 3.00148L18.4589 3.00148L18.4589 4.57224C18.4589 6.29777 13.8885 13.1354 13.8885 14.0005C13.8885 14.8655 18.4589 21.7022 18.4589 23.4296L18.4589 25.0022L3.54367 25.0022L3.54367 23.4296C3.54367 21.7022 8.15091 14.8664 8.15091 14.0014C8.15091 13.1363 3.54275 6.29776 3.54275 4.57224Z" fill="#FF9838"/>
</svg>
