<svg width="105" height="22" viewBox="0 0 105 22" fill="none" xmlns="http://www.w3.org/2000/svg">
<path d="M2.38524 1.73265C1.95281 1.3891 1.32376 1.46115 0.980208 1.89357C0.636658 2.326 0.708705 2.95505 1.14113 3.2986L2.38524 1.73265ZM52.8635 20.3438V19.3438V20.3438ZM104.957 2.62941C105.02 2.08072 104.626 1.58496 104.078 1.52212L95.1361 0.498017C94.5874 0.435173 94.0916 0.829035 94.0288 1.37773C93.9659 1.92643 94.3598 2.42218 94.9085 2.48503L102.857 3.39534L101.946 11.3434C101.883 11.8921 102.277 12.3878 102.826 12.4507C103.375 12.5135 103.87 12.1197 103.933 11.571L104.957 2.62941ZM1.14113 3.2986C9.4745 9.91924 17.0635 14.4432 25.2638 17.3042C33.4642 20.1651 42.2203 21.3438 52.8635 21.3438V19.3438C42.3712 19.3438 33.8515 18.182 25.9227 15.4158C17.9939 12.6496 10.6005 8.25946 2.38524 1.73265L1.14113 3.2986ZM52.8635 21.3438C63.5067 21.3437 72.2629 20.1651 80.4632 17.3042C88.6635 14.4432 96.2525 9.91924 104.586 3.2986L103.342 1.73265C95.1265 8.25946 87.7332 12.6496 79.8044 15.4158C71.8756 18.182 63.3559 19.3437 52.8635 19.3438V21.3438Z" fill="#48484E"/>
</svg>
