<svg width="105" height="22" viewBox="0 0 105 22" fill="none" xmlns="http://www.w3.org/2000/svg">
<path d="M2.15733 20.5174C1.72491 20.8609 1.09585 20.7889 0.752303 20.3564C0.408753 19.924 0.4808 19.295 0.913225 18.9514L2.15733 20.5174ZM52.6356 1.90625V2.90625V1.90625ZM104.729 19.6206C104.792 20.1693 104.398 20.665 103.85 20.7279L94.9082 21.752C94.3595 21.8148 93.8637 21.421 93.8009 20.8723C93.738 20.3236 94.1319 19.8278 94.6806 19.765L102.629 18.8547L101.718 10.9066C101.655 10.3579 102.049 9.86217 102.598 9.79933C103.147 9.73648 103.642 10.1303 103.705 10.679L104.729 19.6206ZM0.913225 18.9514C9.24659 12.3308 16.8356 7.8068 25.0359 4.94583C33.2363 2.08486 41.9924 0.906248 52.6356 0.90625V2.90625C42.1432 2.90625 33.6235 4.06797 25.6948 6.8342C17.766 9.60044 10.3726 13.9905 2.15733 20.5174L0.913225 18.9514ZM52.6356 0.90625C63.2788 0.906252 72.035 2.08487 80.2353 4.94584C88.4356 7.8068 96.0246 12.3308 104.358 18.9514L103.114 20.5174C94.8986 13.9905 87.5052 9.60044 79.5765 6.83421C71.6477 4.06798 63.128 2.90625 52.6356 2.90625V0.90625Z" fill="#48484E"/>
</svg>
