<svg width="116" height="116" viewBox="0 0 116 116" fill="none" xmlns="http://www.w3.org/2000/svg">
<g clip-path="url(#clip0_1183_9581)">
<path d="M66.7662 24.9531H49.2266C48.2299 24.9531 47.4219 24.1451 47.4219 23.1484C47.4219 22.1518 48.2299 21.3438 49.2266 21.3438H66.766C67.7627 21.3438 68.5707 22.1518 68.5707 23.1484C68.5708 24.1453 67.7628 24.9531 66.7662 24.9531Z" fill="#FF9838"/>
<path d="M66.6253 44.9688H49.3789C48.3822 44.9688 47.5742 44.1607 47.5742 43.1641C47.5742 42.1674 48.3822 41.3594 49.3789 41.3594H66.6253C67.622 41.3594 68.43 42.1674 68.43 43.1641C68.43 44.1607 67.622 44.9688 66.6253 44.9688Z" fill="#FF9838"/>
<path d="M33.4091 79.9949C32.6656 79.9949 31.9692 79.5318 31.7075 78.7907C31.3561 77.7952 31.1777 76.7511 31.1777 75.688C31.1777 70.5545 35.3541 66.3779 40.4876 66.3779C41.0587 66.3779 41.6275 66.4319 42.1901 66.5389C43.7392 63.4268 46.9379 61.3743 50.4948 61.3743C50.8792 61.3743 51.1919 61.0616 51.1919 60.6772V53.1719C51.1919 52.1752 51.9999 51.3672 52.9966 51.3672C53.9932 51.3672 54.8013 52.1752 54.8013 53.1719V60.6772C54.8013 63.0519 52.8694 64.9837 50.4948 64.9837C47.9436 64.9837 45.6927 66.7187 45.0205 69.2031C44.886 69.7007 44.5449 70.1169 44.0834 70.3469C43.622 70.5769 43.0842 70.5988 42.6058 70.4063C41.9132 70.1282 41.2005 69.9871 40.4876 69.9871C37.3444 69.9871 34.7871 72.5445 34.7871 75.6878C34.7871 76.3406 34.896 76.9801 35.111 77.5886C35.4429 78.5286 34.9502 79.5595 34.0103 79.8913C33.8113 79.9616 33.6085 79.9949 33.4091 79.9949Z" fill="#FF9838"/>
<path d="M82.758 79.9948C82.5585 79.9948 82.3559 79.9615 82.1571 79.8913C81.2171 79.5594 80.7245 78.5284 81.0564 77.5886C81.2713 76.9801 81.3802 76.3408 81.3802 75.6878C81.3802 72.5977 78.6934 69.9871 75.5129 69.9871C74.7998 69.9871 74.0873 70.1281 73.3946 70.4063C72.9161 70.5984 72.3786 70.5769 71.9171 70.3469C71.4558 70.1171 71.1145 69.7007 70.98 69.2031C70.3078 66.7187 68.0569 64.9837 65.5057 64.9837C63.1311 64.9837 61.1992 63.0519 61.1992 60.6772V53.1719C61.1992 52.1752 62.0072 51.3672 63.0039 51.3672C64.0006 51.3672 64.8086 52.1752 64.8086 53.1719V60.6772C64.8086 61.0616 65.1213 61.3743 65.5057 61.3743C69.0626 61.3743 72.2613 63.4268 73.8104 66.5389C74.3729 66.4319 74.9416 66.3779 75.5129 66.3779C77.9996 66.3779 80.3602 67.3395 82.16 69.0858C83.9847 70.8562 84.9896 73.201 84.9896 75.688C84.9896 76.7511 84.8113 77.7952 84.4598 78.7907C84.1982 79.5316 83.5015 79.9948 82.758 79.9948Z" fill="#FF9838"/>
<path d="M98.1953 76.3835H94.9964V33.1561C94.9964 29.402 91.9422 26.3479 88.1882 26.3479H69.3164C68.1202 19.1929 64.7838 12.4481 59.6275 6.91727C59.5417 6.8254 59.4749 6.75485 59.4314 6.70563C59.0913 6.26266 58.5632 6 58 6C57.4394 6 56.9134 6.26037 56.5731 6.69973C56.5307 6.74714 56.4665 6.81457 56.384 6.90234C51.215 12.4043 47.8731 19.1554 46.6797 26.3477H27.8118C24.0578 26.3477 21.0036 29.4019 21.0036 33.156V76.3833H17.8047C16.808 76.3833 16 77.1913 16 78.188C16 84.7013 21.2987 90 27.8118 90H88.1882C94.7013 90 100 84.7013 100 78.1882C100 77.1915 99.192 76.3835 98.1953 76.3835ZM59.5041 6.80752C59.4853 6.77897 59.4656 6.75108 59.4452 6.72384C59.472 6.75813 59.4905 6.78684 59.5041 6.80752ZM56.559 6.71827C56.5371 6.7473 56.5161 6.777 56.4957 6.80768C56.5101 6.78602 56.53 6.75518 56.559 6.71827ZM57.9954 10.5065C63.2991 16.6987 66.2025 24.3798 66.2025 32.2976C66.2025 40.742 63.7176 46.6673 62.2328 50.2075C62.0605 50.6184 61.8986 51.0043 61.7526 51.3656H54.2459C54.1104 51.0317 53.9586 50.6703 53.7925 50.2739C53.4512 49.4603 53.0573 48.5201 52.6529 47.455C52.6161 47.2712 52.5494 47.0927 52.455 46.9252C51.1466 43.3682 49.7975 38.5054 49.7975 32.2974C49.7975 24.3378 52.698 16.657 57.9954 10.5065ZM24.613 33.1561C24.613 31.3923 26.048 29.9572 27.8118 29.9572H46.2658C46.2157 30.7344 46.1882 31.5147 46.1882 32.2977C46.1882 38.6238 47.4596 43.6208 48.7736 47.3641L44.2191 51.8906C43.512 52.5931 43.5085 53.7358 44.211 54.4427C44.5638 54.7978 45.0276 54.9753 45.4912 54.9753C45.9513 54.9753 46.4113 54.8006 46.7634 54.4508L50.199 51.0363C50.2899 51.2545 50.3788 51.4668 50.4643 51.6702C50.7624 52.3811 51.0259 53.0092 51.1994 53.4933C51.3517 54.3361 52.0888 54.9753 52.9754 54.9753H63.0037C63.785 54.9753 64.4775 54.4728 64.7195 53.7299C64.8936 53.1965 65.203 52.4584 65.5615 51.6036C65.6422 51.4114 65.7262 51.2107 65.8118 51.0053L69.2294 54.4429C69.5822 54.7978 70.0456 54.9753 70.5093 54.9753C70.9695 54.9753 71.4295 54.8006 71.7816 54.4504C72.4885 53.7478 72.4918 52.6051 71.7891 51.8983L67.2411 47.3236C68.5476 43.5984 69.8122 38.6199 69.8122 32.2977C69.8122 31.515 69.7844 30.7347 69.7337 29.9572H88.1883C89.9522 29.9572 91.3872 31.3923 91.3872 33.1561V76.3835H24.613V33.1561ZM88.1882 86.3906H27.8118C23.9088 86.3906 20.6336 83.6506 19.8094 79.9928H96.1906C95.3664 83.6506 92.0912 86.3906 88.1882 86.3906Z" fill="#F5F5F5"/>
<path d="M58.0001 35.1274C55.4061 35.0775 55.8002 31.0933 58.3528 31.5525C60.4426 31.9187 60.1206 35.1763 58.0001 35.1274Z" fill="#F5F5F5"/>
</g>
<defs>
<clipPath id="clip0_1183_9581">
<rect width="84" height="84" fill="white" transform="translate(16 6)"/>
</clipPath>
</defs>
</svg>
