<svg width="116" height="116" viewBox="0 0 116 116" fill="none" xmlns="http://www.w3.org/2000/svg">
<g clip-path="url(#clip0_1183_9572)">
<path d="M96.2812 59.7188H67.6893C66.7401 59.7188 65.9706 58.9492 65.9706 58C65.9706 57.0508 66.7401 56.2812 67.6893 56.2812H96.2812C97.2304 56.2812 98 57.0508 98 58C98 58.9492 97.2304 59.7188 96.2812 59.7188Z" fill="#FF9838"/>
<path d="M96.2812 88.4688H67.6893C66.7401 88.4688 65.9706 87.6992 65.9706 86.75C65.9706 85.8008 66.7401 85.0312 67.6893 85.0312H96.2812C97.2304 85.0312 98 85.8008 98 86.75C98 87.6992 97.2304 88.4688 96.2812 88.4688Z" fill="#FF9838"/>
<path d="M67.6894 64.4844H19.7188C18.7695 64.4844 18 63.7148 18 62.7656C18 61.8164 18.7695 61.0469 19.7188 61.0469H67.6894C68.6386 61.0469 69.4081 61.8164 69.4081 62.7656C69.4081 63.7148 68.6386 64.4844 67.6894 64.4844Z" fill="#FF9838"/>
<path d="M91.5159 46.7506H88.4694V24.4841C88.4694 20.9088 85.5606 18 81.9853 18H24.4841C20.9088 18 18 20.9088 18 24.4841V67.5306C18 71.1059 20.9088 74.0147 24.4841 74.0147H46.7506V80.1078H38.9387C37.9895 80.1078 37.22 80.8773 37.22 81.8266C37.22 82.7758 37.9895 83.5453 38.9387 83.5453H65.9706V91.5159C65.9706 95.0913 68.8794 98 72.4547 98H91.5159C95.0913 98 98 95.0913 98 91.5159V53.2347C98 49.6594 95.0913 46.7506 91.5159 46.7506ZM21.4375 67.5306V24.4841C21.4375 22.8042 22.8042 21.4375 24.4841 21.4375H81.9853C83.6652 21.4375 85.0319 22.8042 85.0319 24.4841V46.7506H72.4547C68.8794 46.7506 65.9706 49.6594 65.9706 53.2347V70.5772H24.4841C22.8042 70.5772 21.4375 69.2105 21.4375 67.5306ZM50.1881 74.0147H56.2812V80.1078H50.1881V74.0147ZM59.7188 80.1078V74.0147H65.9706V80.1078H59.7188ZM94.5625 91.5159C94.5625 93.1958 93.1958 94.5625 91.5159 94.5625H72.4547C70.7748 94.5625 69.4081 93.1958 69.4081 91.5159V53.2347C69.4081 51.5548 70.7748 50.1881 72.4547 50.1881H91.5159C93.1958 50.1881 94.5625 51.5548 94.5625 53.2347V91.5159Z" fill="#F5F5F5"/>
</g>
<defs>
<clipPath id="clip0_1183_9572">
<rect width="116" height="116" fill="white"/>
</clipPath>
</defs>
</svg>
