<svg width="116" height="116" viewBox="0 0 116 116" fill="none" xmlns="http://www.w3.org/2000/svg">
<g clip-path="url(#clip0_1183_9610)">
<g clip-path="url(#clip1_1183_9610)">
<path d="M42.5934 93.9384C42.538 93.9384 42.4823 93.9356 42.4263 93.9295C41.7712 93.8585 41.233 93.3804 41.0852 92.7382L37.3787 76.6189L21.2171 72.8722C20.5757 72.7234 20.0987 72.185 20.0284 71.5304C19.9581 70.8757 20.31 70.2483 20.9052 69.9669L35.5513 63.042L33.7806 49.5293C33.6945 48.8723 34.0362 48.2336 34.6305 47.9407C35.2248 47.6476 35.9396 47.7661 36.4081 48.2344L46.2107 58.0371L60.6588 51.2846C61.2491 51.0088 61.949 51.1324 62.4093 51.594C62.8693 52.0555 62.9908 52.7561 62.7129 53.3456L55.9234 67.7498L65.6223 77.4487C66.0896 77.916 66.2084 78.6285 65.918 79.2221C65.6278 79.8158 64.9931 80.1597 64.3366 80.0774L50.9188 78.4002L43.9909 93.0526C43.7336 93.5975 43.1861 93.9384 42.5934 93.9384ZM26.2483 70.8628L39.019 73.8234C39.5951 73.957 40.0447 74.4073 40.1772 74.9837L43.1008 87.6982L48.6009 76.0651C48.8866 75.461 49.5282 75.1084 50.1912 75.1914L60.2469 76.4484L52.9667 69.1681C52.5052 68.7066 52.3831 68.005 52.6613 67.4147L58.0884 55.9009L46.5386 61.2989C45.9491 61.5742 45.2501 61.4513 44.7898 60.9912L37.4396 53.641L38.7653 63.7574C38.8526 64.4234 38.5001 65.0698 37.8927 65.3569L26.2483 70.8628Z" fill="white"/>
<path d="M60.5733 43.5356C60.2523 43.5356 59.9284 43.4359 59.6511 43.2294C58.9657 42.7194 58.8235 41.7504 59.3336 41.0649L73.0577 22.6234C73.5678 21.938 74.537 21.7961 75.2222 22.306C75.9076 22.816 76.0498 23.7851 75.5398 24.4705L61.8157 42.9122C61.512 43.3202 61.0457 43.5356 60.5733 43.5356Z" fill="white"/>
<path d="M44.5616 45.8226C44.3292 45.8226 44.0931 45.77 43.871 45.659C43.1069 45.277 42.7972 44.3479 43.1793 43.5837L52.3286 25.285C52.7107 24.5209 53.6398 24.2115 54.404 24.5931C55.1681 24.9752 55.4778 25.9043 55.0957 26.6685L45.9464 44.9672C45.6754 45.5091 45.1291 45.8226 44.5616 45.8226Z" fill="#FF9838"/>
<path d="M72.013 54.9743C71.5406 54.9743 71.0745 54.7589 70.7709 54.3508C70.2608 53.6654 70.403 52.6963 71.0884 52.1863L89.5301 38.4623C90.2155 37.9522 91.1845 38.0944 91.6946 38.7797C92.2046 39.4651 92.0625 40.4341 91.3771 40.9442L72.9354 54.6682C72.6579 54.8746 72.3339 54.9743 72.013 54.9743Z" fill="#FF9838"/>
<path d="M69.7243 70.9859C69.1567 70.9859 68.6106 70.6726 68.3394 70.1305C67.9573 69.3663 68.2671 68.4372 69.0312 68.0551L87.33 58.9058C88.0943 58.5239 89.0233 58.8334 89.4053 59.5977C89.7874 60.3618 89.4776 61.2909 88.7136 61.673L70.4148 70.8224C70.1929 70.9333 69.9568 70.9859 69.7243 70.9859Z" fill="white"/>
<path d="M30.8392 26.7175H27.8114V23.5469C27.8114 22.6926 27.1189 22 26.2646 22C25.4103 22 24.7177 22.6926 24.7177 23.5469V26.7177H21.5469C20.6926 26.7177 20 27.4103 20 28.2646C20 29.1189 20.6926 29.8114 21.5469 29.8114H24.7177V32.8392C24.7177 33.6935 25.4103 34.3861 26.2646 34.3861C27.1189 34.3861 27.8114 33.6935 27.8114 32.8392V29.8113H30.8392C31.6935 29.8113 32.3861 29.1187 32.3861 28.2644C32.3861 27.4101 31.6935 26.7175 30.8392 26.7175Z" fill="#FF9838"/>
<path d="M90.4525 86.184H87.2817V83.1562C87.2817 82.302 86.5891 81.6094 85.7348 81.6094C84.8805 81.6094 84.188 82.302 84.188 83.1562V86.184H81.1602C80.3059 86.184 79.6133 86.8766 79.6133 87.7309C79.6133 88.5852 80.3059 89.2778 81.1602 89.2778H84.188V92.4486C84.188 93.3029 84.8805 93.9955 85.7348 93.9955C86.5891 93.9955 87.2817 93.3029 87.2817 92.4486V89.2778H90.4525C91.3068 89.2778 91.9994 88.5852 91.9994 87.7309C91.9994 86.8766 91.3068 86.184 90.4525 86.184Z" fill="#FF9838"/>
</g>
</g>
<defs>
<clipPath id="clip0_1183_9610">
<rect width="116" height="116" fill="white"/>
</clipPath>
<clipPath id="clip1_1183_9610">
<rect width="72" height="72" fill="white" transform="translate(20 22)"/>
</clipPath>
</defs>
</svg>
