<svg width="116" height="116" viewBox="0 0 116 116" fill="none" xmlns="http://www.w3.org/2000/svg">
<path d="M92.4531 44.5391H23.5469C22.6926 44.5391 22 43.8465 22 42.9922C22 42.1379 22.6926 41.4453 23.5469 41.4453H92.4531C93.3074 41.4453 94 42.1379 94 42.9922C94 43.8466 93.3074 44.5391 92.4531 44.5391Z" fill="#FF9838"/>
<path d="M88.1643 91.7142H27.8357C24.6179 91.7142 22 89.0965 22 85.8786V30.1247C22 26.9069 24.6179 24.2891 27.8357 24.2891H88.1643C91.3821 24.2891 94 26.9069 94 30.1247V85.8787C94 89.0965 91.3821 91.7142 88.1643 91.7142ZM27.8357 27.3828C26.3238 27.3828 25.0938 28.6129 25.0938 30.1247V85.8787C25.0938 87.3906 26.3238 88.6206 27.8357 88.6206H88.1643C89.6762 88.6206 90.9062 87.3906 90.9062 85.8787V30.1247C90.9062 28.6129 89.6762 27.3828 88.1643 27.3828H27.8357Z" fill="#F5F5F5"/>
<path d="M83.876 35.9609H57.8574C57.0031 35.9609 56.3105 35.2684 56.3105 34.4141C56.3105 33.5598 57.0031 32.8672 57.8574 32.8672H83.876C84.7303 32.8672 85.4229 33.5598 85.4229 34.4141C85.4229 35.2684 84.7303 35.9609 83.876 35.9609Z" fill="#F5F5F5"/>
<path d="M53.8936 76.5551C53.6632 76.5551 53.429 76.5034 53.2085 76.3941C52.443 76.015 52.1295 75.087 52.5086 74.3214L60.957 57.2593C61.3359 56.4939 62.2638 56.1803 63.0295 56.5594C63.7951 56.9385 64.1085 57.8665 63.7294 58.6321L55.2811 75.6942C55.0112 76.2393 54.4632 76.5551 53.8936 76.5551Z" fill="#FF9838"/>
<path d="M45.0502 76.5616C44.6543 76.5616 44.2584 76.4106 43.9564 76.1085L35.4218 67.5739C34.8177 66.9697 34.8177 65.9903 35.4218 65.3862L43.9564 56.8515C44.5606 56.2475 45.5398 56.2474 46.1441 56.8515C46.7482 57.4556 46.7482 58.4351 46.1441 59.0392L38.7033 66.4801L46.1441 73.921C46.7482 74.5251 46.7482 75.5045 46.1441 76.1087C45.842 76.4106 45.4459 76.5616 45.0502 76.5616Z" fill="#F5F5F5"/>
<path d="M70.9492 76.5617C70.5534 76.5617 70.1575 76.4107 69.8554 76.1086C69.2513 75.5045 69.2513 74.525 69.8554 73.9209L77.2962 66.48L69.8554 59.0391C69.2513 58.435 69.2513 57.4556 69.8554 56.8514C70.4596 56.2474 71.439 56.2474 72.0431 56.8514L80.5777 65.3861C81.1818 65.9902 81.1818 66.9697 80.5777 67.5738L72.0431 76.1085C71.7409 76.4107 71.3451 76.5617 70.9492 76.5617Z" fill="#F5F5F5"/>
<path d="M49.4211 36.1032C47.6042 36.1437 47.3276 33.3537 49.1187 33.039C51.3095 32.6481 51.6439 36.0601 49.4211 36.1032Z" fill="#F5F5F5"/>
<path d="M40.7025 36.1037C38.8855 36.1456 38.6087 33.3531 40.4001 33.0395C42.5884 32.6453 42.9246 36.0623 40.7025 36.1037Z" fill="#F5F5F5"/>
<path d="M31.9823 36.1036C29.7592 36.0612 30.0968 32.6455 32.2848 33.0394C34.0758 33.353 33.7996 36.1457 31.9823 36.1036Z" fill="#F5F5F5"/>
</svg>
