<svg version="1.2" xmlns="http://www.w3.org/2000/svg" viewBox="0 0 546 547" width="546" height="547">
	<title>service-svg</title>
	<style>
		.s0 { fill: #ff9838 } 
	</style>
	<path id="Layer" fill-rule="evenodd" class="s0" d="m290.8 0.3c0.1 0.1 0.9 5.7 1.8 12.4l1.7 12.2 8.7 1.1c8 0.9 17.4 2.4 18.6 2.9 0.3 0.1 2.9-4.9 5.7-11.2l5.1-11.4 3.1 0.7c6.9 1.6 13 3.3 22.1 6.3 9.5 3 9.6 3.1 9.4 4.3-0.8 3.9-3.4 22.6-3.2 23.1 0.2 0.3 2.4 1.5 5 2.5 2.5 1 8.1 3.5 12.3 5.5 4.1 2.1 7.7 3.8 7.9 3.8 0.2 0 3.9-4.2 8.3-9.2 4.3-5.1 7.9-9.2 8-9.2 0.5 0 6.9 3.6 12.5 7.2 9 5.6 17.5 11.7 17.5 12.4 0 0.3-2.2 5.4-5 11.4-2.7 6-4.8 11.1-4.6 11.3 0.2 0.1 1.7 1.2 3.2 2.4 3.8 3.2 12.6 10.7 12.8 11 0.1 0.2 1.2 1.3 2.6 2.4l2.5 2.1 10-6.5c5.4-3.5 10.2-6.5 10.6-6.5 1.2 0 23.9 25.9 23.5 26.9 0 0.2-3.7 4.5-8.1 9.5l-8 9.2 4.3 6.3c2.3 3.4 5.7 8.7 7.5 11.6 1.7 3 3.2 5.5 3.3 5.6 0.1 0.2 21.3-5.9 23.3-6.7 0.8-0.3 7.9 13.7 12.6 25.2 2.3 5.5 2.9 7.4 2.4 7.8-0.3 0.3-5 3.2-10.3 6.6-5.3 3.4-9.8 6.2-9.9 6.3 0 0.1 0.7 2.7 1.8 5.8 1 3 2.7 9.1 3.9 13.3l2.1 7.7 12.4 0.2 12.5 0.1 1 5.8c2.5 13.7 4.3 29.6 3.4 30-0.3 0.1-5.6 1.7-11.8 3.5l-11.2 3.2v14.2l-0.1 14.2 23.8 6.8-0.3 1.8c-0.1 1-0.5 4.4-0.8 7.5-0.3 3.2-1.3 10.3-2.2 15.8-0.9 5.6-1.7 10.2-1.7 10.4 0 0.1-5.6 0.2-12.5 0.3l-12.5 0.1-1.7 6.5c-1 3.5-2.7 9.6-3.9 13.3-1.3 3.8-2.2 7-2.1 7.1 0.1 0.1 4.7 3.1 10.4 6.7l10.3 6.5-1 2.6c-3.3 8.6-13.4 30.2-14 30.2-0.1 0-5.4-1.5-11.8-3.5-6.4-1.8-11.7-3.3-11.9-3.2-0.2 0.2-1.7 2.4-3.3 5.1-1.6 2.7-4.9 7.9-7.4 11.6l-4.6 6.7 8.1 9.3 8.2 9.4-3.2 4.1c-4.1 5.2-11.6 13.8-16.6 19.1l-3.9 4.2-10.3-6.8-10.4-6.7-5.9 5.3c-3.3 2.9-5.8 5.5-5.6 5.8 0.1 0.3 0 0.3-0.2 0.2-0.3-0.2-2 0.8-3.7 2.3-1.8 1.4-3.9 3.1-4.6 3.6l-1.4 1.1 5 10.9c2.8 6.1 5 11.2 5 11.5 0 1.2-27.9 19.5-29.9 19.5-0.2 0-12.2-13.7-15.2-17.5-0.9-1-0.9-0.9-8.6 2.7-4.2 2-9.9 4.5-12.4 5.6-2.6 1-5 2.1-5.2 2.3-0.4 0.3 2.2 20.2 3 23.6 0.2 0.9-0.4 1.2-6.6 3.3q-14.3 4.7-26.6 7.5c-1.3 0.3-1.5 0.1-6.4-11l-5.1-11.3-6.1 1.1c-3.4 0.6-9.7 1.5-14 2l-7.9 0.9-1.7 12.2c-0.9 6.7-1.7 12.3-1.8 12.3-0.4 0.5-22.1 0.7-28.7 0.4l-7.2-0.4-1.6-11.5c-0.9-6.4-1.7-11.9-1.9-12.3-0.1-0.6-1.9-1-8-1.6-4.3-0.5-10.6-1.4-13.9-2l-6.1-1.1-1.4 3.2c-0.7 1.8-1.3 3.6-1.3 3.9 0 0.4-0.1 0.6-0.2 0.4-0.1-0.1-1.8 3.1-3.7 7.3-1.9 4.2-3.5 7.6-3.6 7.7-0.4 0.5-23.4-6-31.7-8.9-2.8-1.1-3.2-1.3-2.8-2.2 0.7-1.8 3.5-23.1 3.1-23.5-0.3-0.2-2.6-1.3-5.2-2.3-2.6-1.1-8.2-3.6-12.4-5.6-7.4-3.5-7.8-3.6-8.5-2.8-3.8 4.6-15.2 17.6-15.4 17.6-0.6 0-10.1-5.7-15.9-9.4-7.3-4.7-14-9.5-14-10.2 0-0.3 2.3-5.5 5.1-11.5l4.9-10.8-1.3-1.1c-3.4-2.6-11.3-9.3-15.4-13.1l-4.6-4.2-10.3 6.8-10.4 6.7-3-3.1c-7.2-7.6-12.4-13.5-18.1-20.9l-2.7-3.4 8.2-9.3 8.2-9.3-4.1-6c-2.3-3.3-5.7-8.5-7.4-11.5-1.9-3-3.5-5.5-3.7-5.7-0.3-0.3-13.4 3.3-23.1 6.3-0.7 0.2-1.6-1.2-4.6-7.2-3.3-6.6-7.9-16.9-10.3-23.3l-0.8-2.1 10.3-6.5c5.6-3.6 10.3-6.6 10.4-6.7 0.1-0.1-0.6-2.6-1.6-5.5-1-3-2.7-8.8-3.8-12.9-1.1-4.1-2.1-7.8-2.2-8.1-0.1-0.5-3.1-0.6-12.7-0.6-6.8 0-12.4-0.2-12.4-0.4 0-0.2-0.6-3.3-1.2-6.8-1.1-5.7-2.7-17.4-3.5-25.7l-0.3-2.8 11.8-3.4 11.9-3.4v-14.2l-0.1-14.2-11.6-3.3c-6.4-1.9-11.8-3.5-11.8-3.6-0.5-0.5 1.8-18.7 3.8-29.8l1.1-5.8 12.5-0.1 12.4-0.2 1.7-6.5c0.9-3.5 2.7-9.4 3.9-13.1 1.2-3.7 2.1-6.9 1.9-7.1-0.1-0.2-4.5-3-9.8-6.4-5.2-3.4-9.8-6.3-10.1-6.6-0.8-0.7 3.3-10.9 9.8-24.1l4.3-9 3.2 0.9c1.8 0.5 7.1 2.1 12 3.5 4.8 1.4 8.9 2.5 9 2.4 0.1-0.1 1.1-1.9 2.3-3.9 1.2-2 4.4-7.2 7.3-11.5 2.8-4.3 5.1-7.9 5.1-8.1 0-0.3-10.8-13-14.8-17.3l-1.2-1.4 3.7-4.6c7.2-9 19.1-22.3 20.1-22.3 0.3 0 5.1 3 10.6 6.5l10.1 6.6 3.7-3.5c4.5-4 14.3-12.4 16.3-13.9l1.4-0.9-5-10.9c-2.8-6-5.1-11.2-5.1-11.5 0-0.5 4.9-4.1 12.2-9 3.9-2.6 17.2-10.6 17.7-10.6 0.1 0 3.8 4.1 8.2 9.2 4.3 5 8.1 9.2 8.3 9.2 0.2 0 3-1.3 6-2.9 3.1-1.5 8.6-4 12.3-5.6 3.7-1.6 6.8-3.2 6.9-3.6 0-0.3-0.7-5.9-1.6-12.3-0.9-6.4-1.7-11.7-1.6-11.7 0-0.1 3.9-1.4 8.5-2.9 8-2.6 16.2-4.9 23-6.5l3-0.6 5.1 11.2 5.1 11.3 5.1-0.9c2.7-0.5 9-1.4 13.9-2l8.9-1.1 1.8-12.3 1.7-12.3 4.8-0.2c4.8-0.2 30.9 0 31.1 0.2zm-98 74.7c-8.6 3.3-24.7 11.5-33.2 16.7l-6.8 4.2 5.9 8c3.2 4.4 21.1 29.1 39.8 54.8 18.7 25.7 34.1 47 34.3 47.2 0.3 0.3 2.4-0.5 4.9-1.8 5.4-2.8 13-5.5 19.7-7 6.8-1.4 23.1-1.5 29.9-0.2 6.6 1.3 13.3 3.6 19.6 6.7l5.7 2.7 1-1.4c0.6-0.8 15.8-21.7 33.8-46.5 18-24.7 32.9-45.2 33.1-45.5 0.2-0.3 3.1-4.3 6.5-8.9l6.1-8.4-1.1-0.9c-2.6-2-14.2-8.6-21.1-12.1-26.1-13.1-53-20.4-83.6-22.7-30.7-2.2-63.9 3.1-94.5 15.1zm212.4 29.2c-0.2 0-18.5 24.9-40.6 55.4l-40.2 55.3 3.6 3.7c12.4 12.7 19.7 27.6 22 44.8 0.8 5.8 0.6 17.1-0.4 22.9-0.4 2.3-0.7 4.2-0.7 4.2 0.5 0.3 134.1 43.6 134.3 43.6 0.8 0 5.4-22.3 6.1-29.6 0.2-1.4 0.5-4.6 0.9-7 0.9-7.3 0.8-34.9-0.3-43.5-1.9-16.2-4.9-29.8-9.3-43.7-12.9-39.7-36.5-74.2-69.2-101.3-3.1-2.6-5.9-4.8-6.2-4.8zm-264.2 0.7c-0.8-0.3-14 11.2-21.3 18.5-10.4 10.3-20.1 22.2-28 34.1-1.7 2.7-3 5.2-2.8 5.5q0.3 0.5-0.2 0.3c-1-0.7-10.3 16.7-15.5 28.7-15.1 35.5-20.5 75.2-15.4 113.4 1 7.5 3.1 19.1 4.8 25.2l0.8 3.3 66.7-21.7c36.7-11.9 66.7-21.6 66.8-21.7 0 0-0.3-1.9-0.7-4.2-1.8-9.4-0.9-25.2 1.9-34.2 0.6-1.8 0.9-3.5 0.7-3.9-0.1-0.4-0.1-0.7 0.1-0.5 0.3 0.1 1.1-1.3 1.8-3.3 3.2-8.3 9.1-17.4 16-24.7l4.6-4.9-39.9-54.9c-21.9-30.2-40.1-54.9-40.4-55zm117.9 140.2c-7.3 3.5-13.3 10.3-16 17.8-1 3-1.4 4.9-1.5 9.2-0.3 6.4 0.5 10 3.2 15.5 1.9 3.9 5.5 8.4 6.2 7.9 0.3-0.2 0.4-0.1 0.2 0.2-0.4 0.8 3.6 3.9 8 6.1 12.5 6.1 26.3 3.8 36.3-6.2 6.3-6.4 9.2-13.3 9.2-22 0-7.3-2-13.4-6.3-19.2-4.3-5.9-11.8-10.6-19.2-12.1-7.1-1.4-13.3-0.6-20.1 2.8zm-57.8 59.2c-0.2 0-30.3 9.8-66.9 21.7-62.4 20.4-66.5 21.8-66.2 22.7 1 3.4 6.3 16.1 9.3 22.4 4.7 9.8 8.6 16.6 15.5 26.9 38.1 57.3 101.4 93 170.3 96.4l2.6 0.1v-143.5l-1.1-0.2c-16.7-3-24.6-5.9-35.7-13.3-5.6-3.7-16.3-14-19.3-18.7-2.6-4-5.9-9.5-6.9-11.8-0.7-1.5-1.5-2.8-1.6-2.7zm144.1 0.2c-0.5-0.2-1.3 0.7-2.6 3.5-7.5 15-20.9 28.2-36.1 35.5-6.8 3.2-11.5 4.7-18.5 6-3.1 0.6-6.2 1.2-6.8 1.3l-1.1 0.2v143.7l4.1-0.3c34.9-2 67.1-11.4 97.1-28.4 11.6-6.5 26.7-17.5 37.9-27.5 25-22.3 45.9-52.9 57.9-84.7 1.1-3 2-5.5 2-5.6 0-0.3-35.1-11.6-36.4-11.7-0.6-0.1-1.2-0.3-1.4-0.5-0.1-0.2-21.6-7.3-47.8-15.8-26.2-8.5-47.9-15.6-48.3-15.7z"/>
</svg>